<?xml version="1.0" encoding="UTF-8" standalone="no"?>
<!DOCTYPE svg PUBLIC "-//W3C//DTD SVG 1.1//EN"
 "http://www.w3.org/Graphics/SVG/1.1/DTD/svg11.dtd">
<!-- Generated by graphviz version 9.0.0 (0)
 -->
<!-- Title: snakemake_dag Pages: 1 -->
<svg width="314pt" height="116pt"
 viewBox="0.00 0.00 314.38 116.00" xmlns="http://www.w3.org/2000/svg" xmlns:xlink="http://www.w3.org/1999/xlink">
<g id="graph0" class="graph" transform="scale(1 1) rotate(0) translate(4 112)">
<title>snakemake_dag</title>
<polygon fill="white" stroke="none" points="-4,4 -4,-112 310.38,-112 310.38,4 -4,4"/>
<!-- 0 -->
<g id="node1" class="node">
<title>0</title>
<path fill="none" stroke="#59d856" stroke-width="2" d="M169.25,-36C169.25,-36 139.25,-36 139.25,-36 133.25,-36 127.25,-30 127.25,-24 127.25,-24 127.25,-12 127.25,-12 127.25,-6 133.25,0 139.25,0 139.25,0 169.25,0 169.25,0 175.25,0 181.25,-6 181.25,-12 181.25,-12 181.25,-24 181.25,-24 181.25,-30 175.25,-36 169.25,-36"/>
<text text-anchor="middle" x="154.25" y="-14.12" font-family="sans" font-size="10.00">all</text>
</g>
<!-- 1 -->
<g id="node2" class="node">
<title>1</title>
<path fill="none" stroke="#d85656" stroke-width="2" d="M86.5,-108C86.5,-108 12,-108 12,-108 6,-108 0,-102 0,-96 0,-96 0,-84 0,-84 0,-78 6,-72 12,-72 12,-72 86.5,-72 86.5,-72 92.5,-72 98.5,-78 98.5,-84 98.5,-84 98.5,-96 98.5,-96 98.5,-102 92.5,-108 86.5,-108"/>
<text text-anchor="middle" x="49.25" y="-86.12" font-family="sans" font-size="10.00">generate_rulegraph</text>
</g>
<!-- 1&#45;&gt;0 -->
<g id="edge1" class="edge">
<title>1&#45;&gt;0</title>
<path fill="none" stroke="grey" stroke-width="2" d="M76.02,-71.15C88.48,-62.84 103.52,-52.82 117.07,-43.79"/>
<polygon fill="grey" stroke="grey" stroke-width="2" points="118.63,-46.95 125.01,-38.49 114.75,-41.13 118.63,-46.95"/>
</g>
<!-- 2 -->
<g id="node3" class="node">
<title>2</title>
<path fill="none" stroke="#d6d856" stroke-width="2" d="M179.88,-108C179.88,-108 128.62,-108 128.62,-108 122.62,-108 116.62,-102 116.62,-96 116.62,-96 116.62,-84 116.62,-84 116.62,-78 122.62,-72 128.62,-72 128.62,-72 179.88,-72 179.88,-72 185.88,-72 191.88,-78 191.88,-84 191.88,-84 191.88,-96 191.88,-96 191.88,-102 185.88,-108 179.88,-108"/>
<text text-anchor="middle" x="154.25" y="-86.12" font-family="sans" font-size="10.00">generate_tree</text>
</g>
<!-- 2&#45;&gt;0 -->
<g id="edge2" class="edge">
<title>2&#45;&gt;0</title>
<path fill="none" stroke="grey" stroke-width="2" d="M154.25,-71.34C154.25,-64.75 154.25,-57.08 154.25,-49.67"/>
<polygon fill="grey" stroke="grey" stroke-width="2" points="157.75,-49.93 154.25,-39.93 150.75,-49.93 157.75,-49.93"/>
</g>
<!-- 3 -->
<g id="node4" class="node">
<title>3</title>
<path fill="none" stroke="#56d8d8" stroke-width="2" d="M294.38,-108C294.38,-108 222.12,-108 222.12,-108 216.12,-108 210.12,-102 210.12,-96 210.12,-96 210.12,-84 210.12,-84 210.12,-78 216.12,-72 222.12,-72 222.12,-72 294.38,-72 294.38,-72 300.38,-72 306.38,-78 306.38,-84 306.38,-84 306.38,-96 306.38,-96 306.38,-102 300.38,-108 294.38,-108"/>
<text text-anchor="middle" x="258.25" y="-86.12" font-family="sans" font-size="10.00">snakemake_report</text>
</g>
<!-- 3&#45;&gt;0 -->
<g id="edge3" class="edge">
<title>3&#45;&gt;0</title>
<path fill="none" stroke="grey" stroke-width="2" d="M231.74,-71.15C219.51,-62.93 204.79,-53.02 191.48,-44.06"/>
<polygon fill="grey" stroke="grey" stroke-width="2" points="193.48,-41.18 183.23,-38.5 189.57,-46.99 193.48,-41.18"/>
</g>
</g>
</svg>
