<?xml version="1.0" encoding="UTF-8" standalone="no"?>
<!DOCTYPE svg PUBLIC "-//W3C//DTD SVG 1.1//EN"
 "http://www.w3.org/Graphics/SVG/1.1/DTD/svg11.dtd">
<!-- Generated by graphviz version 6.0.1 (0)
 -->
<!-- Title: snakemake_dag Pages: 1 -->
<svg width="130pt" height="116pt"
 viewBox="0.00 0.00 130.00 116.00" xmlns="http://www.w3.org/2000/svg" xmlns:xlink="http://www.w3.org/1999/xlink">
<g id="graph0" class="graph" transform="scale(1 1) rotate(0) translate(4 112)">
<title>snakemake_dag</title>
<polygon fill="white" stroke="none" points="-4,4 -4,-112 126,-112 126,4 -4,4"/>
<!-- 0 -->
<g id="node1" class="node">
<title>0</title>
<path fill="none" stroke="#d85656" stroke-width="2" d="M76,-36C76,-36 46,-36 46,-36 40,-36 34,-30 34,-24 34,-24 34,-12 34,-12 34,-6 40,0 46,0 46,0 76,0 76,0 82,0 88,-6 88,-12 88,-12 88,-24 88,-24 88,-30 82,-36 76,-36"/>
<text text-anchor="middle" x="61" y="-15.5" font-family="sans" font-size="10.00">all</text>
</g>
<!-- 1 -->
<g id="node2" class="node">
<title>1</title>
<path fill="none" stroke="#59d856" stroke-width="2" d="M110,-108C110,-108 12,-108 12,-108 6,-108 0,-102 0,-96 0,-96 0,-84 0,-84 0,-78 6,-72 12,-72 12,-72 110,-72 110,-72 116,-72 122,-78 122,-84 122,-84 122,-96 122,-96 122,-102 116,-108 110,-108"/>
<text text-anchor="middle" x="61" y="-87.5" font-family="sans" font-size="10.00">deploy_to_github_pages</text>
</g>
<!-- 1&#45;&gt;0 -->
<g id="edge1" class="edge">
<title>1&#45;&gt;0</title>
<path fill="none" stroke="grey" stroke-width="2" d="M61,-71.7C61,-63.98 61,-54.71 61,-46.11"/>
<polygon fill="grey" stroke="grey" stroke-width="2" points="64.5,-46.1 61,-36.1 57.5,-46.1 64.5,-46.1"/>
</g>
</g>
</svg>
