<?xml version="1.0" encoding="UTF-8" standalone="no"?>
<!DOCTYPE svg PUBLIC "-//W3C//DTD SVG 1.1//EN"
 "http://www.w3.org/Graphics/SVG/1.1/DTD/svg11.dtd">
<!-- Generated by graphviz version 6.0.1 (0)
 -->
<!-- Title: snakemake_dag Pages: 1 -->
<svg width="375pt" height="188pt"
 viewBox="0.00 0.00 375.00 188.00" xmlns="http://www.w3.org/2000/svg" xmlns:xlink="http://www.w3.org/1999/xlink">
<g id="graph0" class="graph" transform="scale(1 1) rotate(0) translate(4 184)">
<title>snakemake_dag</title>
<polygon fill="white" stroke="none" points="-4,4 -4,-184 371,-184 371,4 -4,4"/>
<!-- 0 -->
<g id="node1" class="node">
<title>0</title>
<path fill="none" stroke="#56a2d8" stroke-width="2" d="M230,-36C230,-36 200,-36 200,-36 194,-36 188,-30 188,-24 188,-24 188,-12 188,-12 188,-6 194,0 200,0 200,0 230,0 230,0 236,0 242,-6 242,-12 242,-12 242,-24 242,-24 242,-30 236,-36 230,-36"/>
<text text-anchor="middle" x="215" y="-15.5" font-family="sans" font-size="10.00">all</text>
</g>
<!-- 1 -->
<g id="node2" class="node">
<title>1</title>
<path fill="none" stroke="#c6d856" stroke-width="2" d="M175,-108C175,-108 77,-108 77,-108 71,-108 65,-102 65,-96 65,-96 65,-84 65,-84 65,-78 71,-72 77,-72 77,-72 175,-72 175,-72 181,-72 187,-78 187,-84 187,-84 187,-96 187,-96 187,-102 181,-108 175,-108"/>
<text text-anchor="middle" x="126" y="-87.5" font-family="sans" font-size="10.00">deploy_to_github_pages</text>
</g>
<!-- 1&#45;&gt;0 -->
<g id="edge3" class="edge">
<title>1&#45;&gt;0</title>
<path fill="none" stroke="grey" stroke-width="2" d="M148,-71.7C159.21,-62.88 173,-52.03 185.15,-42.47"/>
<polygon fill="grey" stroke="grey" stroke-width="2" points="187.56,-45.04 193.25,-36.1 183.23,-39.54 187.56,-45.04"/>
</g>
<!-- 2 -->
<g id="node3" class="node">
<title>2</title>
<path fill="none" stroke="#d8a456" stroke-width="2" d="M82,-180C82,-180 12,-180 12,-180 6,-180 0,-174 0,-168 0,-168 0,-156 0,-156 0,-150 6,-144 12,-144 12,-144 82,-144 82,-144 88,-144 94,-150 94,-156 94,-156 94,-168 94,-168 94,-174 88,-180 82,-180"/>
<text text-anchor="middle" x="47" y="-159.5" font-family="sans" font-size="10.00">get_dot_rulegraph</text>
</g>
<!-- 2&#45;&gt;1 -->
<g id="edge4" class="edge">
<title>2&#45;&gt;1</title>
<path fill="none" stroke="grey" stroke-width="2" d="M66.53,-143.7C76.38,-134.97 88.49,-124.24 99.2,-114.75"/>
<polygon fill="grey" stroke="grey" stroke-width="2" points="101.53,-117.36 106.7,-108.1 96.89,-112.12 101.53,-117.36"/>
</g>
<!-- 3 -->
<g id="node4" class="node">
<title>3</title>
<path fill="none" stroke="#d85656" stroke-width="2" d="M168,-180C168,-180 124,-180 124,-180 118,-180 112,-174 112,-168 112,-168 112,-156 112,-156 112,-150 118,-144 124,-144 124,-144 168,-144 168,-144 174,-144 180,-150 180,-156 180,-156 180,-168 180,-168 180,-174 174,-180 168,-180"/>
<text text-anchor="middle" x="146" y="-159.5" font-family="sans" font-size="10.00">project_tree</text>
</g>
<!-- 3&#45;&gt;1 -->
<g id="edge5" class="edge">
<title>3&#45;&gt;1</title>
<path fill="none" stroke="grey" stroke-width="2" d="M141.06,-143.7C138.83,-135.9 136.15,-126.51 133.67,-117.83"/>
<polygon fill="grey" stroke="grey" stroke-width="2" points="137,-116.76 130.89,-108.1 130.27,-118.68 137,-116.76"/>
</g>
<!-- 4 -->
<g id="node5" class="node">
<title>4</title>
<path fill="none" stroke="#56d8c9" stroke-width="2" d="M320.5,-180C320.5,-180 249.5,-180 249.5,-180 243.5,-180 237.5,-174 237.5,-168 237.5,-168 237.5,-156 237.5,-156 237.5,-150 243.5,-144 249.5,-144 249.5,-144 320.5,-144 320.5,-144 326.5,-144 332.5,-150 332.5,-156 332.5,-156 332.5,-168 332.5,-168 332.5,-174 326.5,-180 320.5,-180"/>
<text text-anchor="middle" x="285" y="-159.5" font-family="sans" font-size="10.00">get_sra_metadata</text>
</g>
<!-- 4&#45;&gt;0 -->
<g id="edge1" class="edge">
<title>4&#45;&gt;0</title>
<path fill="none" stroke="grey" stroke-width="2" d="M263.72,-143.95C253.23,-134.44 241.31,-121.76 234,-108 223.78,-88.75 219.06,-64.41 216.87,-46.05"/>
<polygon fill="grey" stroke="grey" stroke-width="2" points="220.35,-45.61 215.86,-36.01 213.38,-46.32 220.35,-45.61"/>
</g>
<!-- 5 -->
<g id="node6" class="node">
<title>5</title>
<path fill="none" stroke="#78d856" stroke-width="2" d="M355,-108C355,-108 255,-108 255,-108 249,-108 243,-102 243,-96 243,-96 243,-84 243,-84 243,-78 249,-72 255,-72 255,-72 355,-72 355,-72 361,-72 367,-78 367,-84 367,-84 367,-96 367,-96 367,-102 361,-108 355,-108"/>
<text text-anchor="middle" x="305" y="-87.5" font-family="sans" font-size="10.00">fasterq_dump_sra_reads</text>
</g>
<!-- 4&#45;&gt;5 -->
<g id="edge6" class="edge">
<title>4&#45;&gt;5</title>
<path fill="none" stroke="grey" stroke-width="2" d="M289.94,-143.7C292.17,-135.9 294.85,-126.51 297.33,-117.83"/>
<polygon fill="grey" stroke="grey" stroke-width="2" points="300.73,-118.68 300.11,-108.1 294,-116.76 300.73,-118.68"/>
</g>
<!-- 5&#45;&gt;0 -->
<g id="edge2" class="edge">
<title>5&#45;&gt;0</title>
<path fill="none" stroke="grey" stroke-width="2" d="M282.75,-71.7C271.42,-62.88 257.47,-52.03 245.18,-42.47"/>
<polygon fill="grey" stroke="grey" stroke-width="2" points="247.03,-39.48 236.99,-36.1 242.74,-45.01 247.03,-39.48"/>
</g>
</g>
</svg>
