<?xml version="1.0" encoding="UTF-8" standalone="no"?>
<!DOCTYPE svg PUBLIC "-//W3C//DTD SVG 1.1//EN"
 "http://www.w3.org/Graphics/SVG/1.1/DTD/svg11.dtd">
<!-- Generated by graphviz version 6.0.1 (0)
 -->
<!-- Title: snakemake_dag Pages: 1 -->
<svg width="466pt" height="332pt"
 viewBox="0.00 0.00 466.00 332.00" xmlns="http://www.w3.org/2000/svg" xmlns:xlink="http://www.w3.org/1999/xlink">
<g id="graph0" class="graph" transform="scale(1 1) rotate(0) translate(4 328)">
<title>snakemake_dag</title>
<polygon fill="white" stroke="none" points="-4,4 -4,-328 462,-328 462,4 -4,4"/>
<!-- 0 -->
<g id="node1" class="node">
<title>0</title>
<path fill="none" stroke="#56c9d8" stroke-width="2" d="M152,-36C152,-36 122,-36 122,-36 116,-36 110,-30 110,-24 110,-24 110,-12 110,-12 110,-6 116,0 122,0 122,0 152,0 152,0 158,0 164,-6 164,-12 164,-12 164,-24 164,-24 164,-30 158,-36 152,-36"/>
<text text-anchor="middle" x="137" y="-15.5" font-family="sans" font-size="10.00">all</text>
</g>
<!-- 1 -->
<g id="node2" class="node">
<title>1</title>
<path fill="none" stroke="#d88d56" stroke-width="2" d="M112,-180C112,-180 12,-180 12,-180 6,-180 0,-174 0,-168 0,-168 0,-156 0,-156 0,-150 6,-144 12,-144 12,-144 112,-144 112,-144 118,-144 124,-150 124,-156 124,-156 124,-168 124,-168 124,-174 118,-180 112,-180"/>
<text text-anchor="middle" x="62" y="-159.5" font-family="sans" font-size="10.00">fasterq_dump_sra_reads</text>
</g>
<!-- 1&#45;&gt;0 -->
<g id="edge3" class="edge">
<title>1&#45;&gt;0</title>
<path fill="none" stroke="grey" stroke-width="2" d="M62.66,-143.87C64.03,-125.13 68.24,-94.73 81,-72 87.14,-61.06 96.3,-51.02 105.43,-42.7"/>
<polygon fill="grey" stroke="grey" stroke-width="2" points="107.76,-45.31 113.04,-36.12 103.18,-40.02 107.76,-45.31"/>
</g>
<!-- 4 -->
<g id="node5" class="node">
<title>4</title>
<path fill="none" stroke="#5692d8" stroke-width="2" d="M172,-108C172,-108 102,-108 102,-108 96,-108 90,-102 90,-96 90,-96 90,-84 90,-84 90,-78 96,-72 102,-72 102,-72 172,-72 172,-72 178,-72 184,-78 184,-84 184,-84 184,-96 184,-96 184,-102 178,-108 172,-108"/>
<text text-anchor="middle" x="137" y="-87.5" font-family="sans" font-size="10.00">resize_for_testing</text>
</g>
<!-- 1&#45;&gt;4 -->
<g id="edge6" class="edge">
<title>1&#45;&gt;4</title>
<path fill="none" stroke="grey" stroke-width="2" d="M80.54,-143.7C89.8,-135.05 101.16,-124.45 111.26,-115.03"/>
<polygon fill="grey" stroke="grey" stroke-width="2" points="113.75,-117.49 118.67,-108.1 108.98,-112.37 113.75,-117.49"/>
</g>
<!-- 2 -->
<g id="node3" class="node">
<title>2</title>
<path fill="none" stroke="#d8cb56" stroke-width="2" d="M107.5,-252C107.5,-252 16.5,-252 16.5,-252 10.5,-252 4.5,-246 4.5,-240 4.5,-240 4.5,-228 4.5,-228 4.5,-222 10.5,-216 16.5,-216 16.5,-216 107.5,-216 107.5,-216 113.5,-216 119.5,-222 119.5,-228 119.5,-228 119.5,-240 119.5,-240 119.5,-246 113.5,-252 107.5,-252"/>
<text text-anchor="middle" x="62" y="-231.5" font-family="sans" font-size="10.00">extract_sra_accession</text>
</g>
<!-- 2&#45;&gt;1 -->
<g id="edge4" class="edge">
<title>2&#45;&gt;1</title>
<path fill="none" stroke="grey" stroke-width="2" d="M62,-215.7C62,-207.98 62,-198.71 62,-190.11"/>
<polygon fill="grey" stroke="grey" stroke-width="2" points="65.5,-190.1 62,-180.1 58.5,-190.1 65.5,-190.1"/>
</g>
<!-- 3 -->
<g id="node4" class="node">
<title>3</title>
<path fill="none" stroke="#56d873" stroke-width="2" d="M97.5,-324C97.5,-324 26.5,-324 26.5,-324 20.5,-324 14.5,-318 14.5,-312 14.5,-312 14.5,-300 14.5,-300 14.5,-294 20.5,-288 26.5,-288 26.5,-288 97.5,-288 97.5,-288 103.5,-288 109.5,-294 109.5,-300 109.5,-300 109.5,-312 109.5,-312 109.5,-318 103.5,-324 97.5,-324"/>
<text text-anchor="middle" x="62" y="-303.5" font-family="sans" font-size="10.00">get_sra_metadata</text>
</g>
<!-- 3&#45;&gt;2 -->
<g id="edge5" class="edge">
<title>3&#45;&gt;2</title>
<path fill="none" stroke="grey" stroke-width="2" d="M62,-287.7C62,-279.98 62,-270.71 62,-262.11"/>
<polygon fill="grey" stroke="grey" stroke-width="2" points="65.5,-262.1 62,-252.1 58.5,-262.1 65.5,-262.1"/>
</g>
<!-- 4&#45;&gt;0 -->
<g id="edge2" class="edge">
<title>4&#45;&gt;0</title>
<path fill="none" stroke="grey" stroke-width="2" d="M137,-71.7C137,-63.98 137,-54.71 137,-46.11"/>
<polygon fill="grey" stroke="grey" stroke-width="2" points="140.5,-46.1 137,-36.1 133.5,-46.1 140.5,-46.1"/>
</g>
<!-- 5 -->
<g id="node6" class="node">
<title>5</title>
<path fill="none" stroke="#d85656" stroke-width="2" d="M326,-108C326,-108 228,-108 228,-108 222,-108 216,-102 216,-96 216,-96 216,-84 216,-84 216,-78 222,-72 228,-72 228,-72 326,-72 326,-72 332,-72 338,-78 338,-84 338,-84 338,-96 338,-96 338,-102 332,-108 326,-108"/>
<text text-anchor="middle" x="277" y="-87.5" font-family="sans" font-size="10.00">deploy_to_github_pages</text>
</g>
<!-- 5&#45;&gt;0 -->
<g id="edge1" class="edge">
<title>5&#45;&gt;0</title>
<path fill="none" stroke="grey" stroke-width="2" d="M242.75,-71.88C221.74,-61.37 194.85,-47.92 173.44,-37.22"/>
<polygon fill="grey" stroke="grey" stroke-width="2" points="174.85,-34.01 164.34,-32.67 171.72,-40.27 174.85,-34.01"/>
</g>
<!-- 6 -->
<g id="node7" class="node">
<title>6</title>
<path fill="none" stroke="#56d8a9" stroke-width="2" d="M198,-180C198,-180 154,-180 154,-180 148,-180 142,-174 142,-168 142,-168 142,-156 142,-156 142,-150 148,-144 154,-144 154,-144 198,-144 198,-144 204,-144 210,-150 210,-156 210,-156 210,-168 210,-168 210,-174 204,-180 198,-180"/>
<text text-anchor="middle" x="176" y="-159.5" font-family="sans" font-size="10.00">project_tree</text>
</g>
<!-- 6&#45;&gt;5 -->
<g id="edge8" class="edge">
<title>6&#45;&gt;5</title>
<path fill="none" stroke="grey" stroke-width="2" d="M200.71,-143.88C213.67,-134.89 229.73,-123.76 243.77,-114.03"/>
<polygon fill="grey" stroke="grey" stroke-width="2" points="245.97,-116.76 252.2,-108.19 241.98,-111.01 245.97,-116.76"/>
</g>
<!-- 7 -->
<g id="node8" class="node">
<title>7</title>
<path fill="none" stroke="#70d856" stroke-width="2" d="M342,-180C342,-180 240,-180 240,-180 234,-180 228,-174 228,-168 228,-168 228,-156 228,-156 228,-150 234,-144 240,-144 240,-144 342,-144 342,-144 348,-144 354,-150 354,-156 354,-156 354,-168 354,-168 354,-174 348,-180 342,-180"/>
<text text-anchor="middle" x="291" y="-159.5" font-family="sans" font-size="10.00">static_snakemake_report</text>
</g>
<!-- 7&#45;&gt;5 -->
<g id="edge7" class="edge">
<title>7&#45;&gt;5</title>
<path fill="none" stroke="grey" stroke-width="2" d="M287.54,-143.7C286,-135.98 284.14,-126.71 282.42,-118.11"/>
<polygon fill="grey" stroke="grey" stroke-width="2" points="285.81,-117.22 280.42,-108.1 278.95,-118.6 285.81,-117.22"/>
</g>
<!-- 8 -->
<g id="node9" class="node">
<title>8</title>
<path fill="none" stroke="#afd856" stroke-width="2" d="M446,-180C446,-180 384,-180 384,-180 378,-180 372,-174 372,-168 372,-168 372,-156 372,-156 372,-150 378,-144 384,-144 384,-144 446,-144 446,-144 452,-144 458,-150 458,-156 458,-156 458,-168 458,-168 458,-174 452,-180 446,-180"/>
<text text-anchor="middle" x="415" y="-159.5" font-family="sans" font-size="10.00">dot_rules_graph</text>
</g>
<!-- 8&#45;&gt;5 -->
<g id="edge9" class="edge">
<title>8&#45;&gt;5</title>
<path fill="none" stroke="grey" stroke-width="2" d="M381.24,-143.88C362.78,-134.51 339.72,-122.81 319.98,-112.8"/>
<polygon fill="grey" stroke="grey" stroke-width="2" points="321.39,-109.59 310.89,-108.19 318.22,-115.83 321.39,-109.59"/>
</g>
</g>
</svg>
