<?xml version="1.0" encoding="UTF-8" standalone="no"?>
<!DOCTYPE svg PUBLIC "-//W3C//DTD SVG 1.1//EN"
 "http://www.w3.org/Graphics/SVG/1.1/DTD/svg11.dtd">
<!-- Generated by graphviz version 6.0.1 (0)
 -->
<!-- Title: snakemake_dag Pages: 1 -->
<svg width="431pt" height="188pt"
 viewBox="0.00 0.00 431.00 188.00" xmlns="http://www.w3.org/2000/svg" xmlns:xlink="http://www.w3.org/1999/xlink">
<g id="graph0" class="graph" transform="scale(1 1) rotate(0) translate(4 184)">
<title>snakemake_dag</title>
<polygon fill="white" stroke="none" points="-4,4 -4,-184 427,-184 427,4 -4,4"/>
<!-- 0 -->
<g id="node1" class="node">
<title>0</title>
<path fill="none" stroke="#d85656" stroke-width="2" d="M167,-36C167,-36 137,-36 137,-36 131,-36 125,-30 125,-24 125,-24 125,-12 125,-12 125,-6 131,0 137,0 137,0 167,0 167,0 173,0 179,-6 179,-12 179,-12 179,-24 179,-24 179,-30 173,-36 167,-36"/>
<text text-anchor="middle" x="152" y="-15.5" font-family="sans" font-size="10.00">all</text>
</g>
<!-- 1 -->
<g id="node2" class="node">
<title>1</title>
<path fill="none" stroke="#78d856" stroke-width="2" d="M112,-108C112,-108 12,-108 12,-108 6,-108 0,-102 0,-96 0,-96 0,-84 0,-84 0,-78 6,-72 12,-72 12,-72 112,-72 112,-72 118,-72 124,-78 124,-84 124,-84 124,-96 124,-96 124,-102 118,-108 112,-108"/>
<text text-anchor="middle" x="62" y="-87.5" font-family="sans" font-size="10.00">fasterq_dump_sra_reads</text>
</g>
<!-- 1&#45;&gt;0 -->
<g id="edge2" class="edge">
<title>1&#45;&gt;0</title>
<path fill="none" stroke="grey" stroke-width="2" d="M84.25,-71.7C95.58,-62.88 109.53,-52.03 121.82,-42.47"/>
<polygon fill="grey" stroke="grey" stroke-width="2" points="124.26,-45.01 130.01,-36.1 119.97,-39.48 124.26,-45.01"/>
</g>
<!-- 2 -->
<g id="node3" class="node">
<title>2</title>
<path fill="none" stroke="#56d87b" stroke-width="2" d="M181,-180C181,-180 119,-180 119,-180 113,-180 107,-174 107,-168 107,-168 107,-156 107,-156 107,-150 113,-144 119,-144 119,-144 181,-144 181,-144 187,-144 193,-150 193,-156 193,-156 193,-168 193,-168 193,-174 187,-180 181,-180"/>
<text text-anchor="middle" x="150" y="-159.5" font-family="sans" font-size="10.00">dot_rules_graph</text>
</g>
<!-- 2&#45;&gt;0 -->
<g id="edge3" class="edge">
<title>2&#45;&gt;0</title>
<path fill="none" stroke="grey" stroke-width="2" d="M150.24,-143.87C150.58,-119.67 151.21,-75.21 151.61,-46.39"/>
<polygon fill="grey" stroke="grey" stroke-width="2" points="155.12,-46.24 151.76,-36.19 148.12,-46.14 155.12,-46.24"/>
</g>
<!-- 3 -->
<g id="node4" class="node">
<title>3</title>
<path fill="none" stroke="#d8a456" stroke-width="2" d="M293,-108C293,-108 195,-108 195,-108 189,-108 183,-102 183,-96 183,-96 183,-84 183,-84 183,-78 189,-72 195,-72 195,-72 293,-72 293,-72 299,-72 305,-78 305,-84 305,-84 305,-96 305,-96 305,-102 299,-108 293,-108"/>
<text text-anchor="middle" x="244" y="-87.5" font-family="sans" font-size="10.00">deploy_to_github_pages</text>
</g>
<!-- 2&#45;&gt;3 -->
<g id="edge5" class="edge">
<title>2&#45;&gt;3</title>
<path fill="none" stroke="grey" stroke-width="2" d="M173.24,-143.7C185.19,-134.8 199.92,-123.82 212.85,-114.2"/>
<polygon fill="grey" stroke="grey" stroke-width="2" points="215.1,-116.88 221.03,-108.1 210.92,-111.27 215.1,-116.88"/>
</g>
<!-- 3&#45;&gt;0 -->
<g id="edge1" class="edge">
<title>3&#45;&gt;0</title>
<path fill="none" stroke="grey" stroke-width="2" d="M221.26,-71.7C209.56,-62.8 195.14,-51.82 182.49,-42.2"/>
<polygon fill="grey" stroke="grey" stroke-width="2" points="184.56,-39.37 174.48,-36.1 180.32,-44.94 184.56,-39.37"/>
</g>
<!-- 4 -->
<g id="node5" class="node">
<title>4</title>
<path fill="none" stroke="#56d8c9" stroke-width="2" d="M267,-180C267,-180 223,-180 223,-180 217,-180 211,-174 211,-168 211,-168 211,-156 211,-156 211,-150 217,-144 223,-144 223,-144 267,-144 267,-144 273,-144 279,-150 279,-156 279,-156 279,-168 279,-168 279,-174 273,-180 267,-180"/>
<text text-anchor="middle" x="245" y="-159.5" font-family="sans" font-size="10.00">project_tree</text>
</g>
<!-- 4&#45;&gt;3 -->
<g id="edge6" class="edge">
<title>4&#45;&gt;3</title>
<path fill="none" stroke="grey" stroke-width="2" d="M244.75,-143.7C244.64,-135.98 244.51,-126.71 244.39,-118.11"/>
<polygon fill="grey" stroke="grey" stroke-width="2" points="247.89,-118.05 244.24,-108.1 240.89,-118.15 247.89,-118.05"/>
</g>
<!-- 5 -->
<g id="node6" class="node">
<title>5</title>
<path fill="none" stroke="#c6d856" stroke-width="2" d="M411,-180C411,-180 309,-180 309,-180 303,-180 297,-174 297,-168 297,-168 297,-156 297,-156 297,-150 303,-144 309,-144 309,-144 411,-144 411,-144 417,-144 423,-150 423,-156 423,-156 423,-168 423,-168 423,-174 417,-180 411,-180"/>
<text text-anchor="middle" x="360" y="-159.5" font-family="sans" font-size="10.00">static_snakemake_report</text>
</g>
<!-- 5&#45;&gt;3 -->
<g id="edge4" class="edge">
<title>5&#45;&gt;3</title>
<path fill="none" stroke="grey" stroke-width="2" d="M331.62,-143.88C316.46,-134.72 297.59,-123.34 281.26,-113.48"/>
<polygon fill="grey" stroke="grey" stroke-width="2" points="282.86,-110.36 272.49,-108.19 279.24,-116.35 282.86,-110.36"/>
</g>
</g>
</svg>
